<?xml version="1.0" encoding="UTF-8" standalone="no"?>
<!DOCTYPE svg PUBLIC "-//W3C//DTD SVG 1.1//EN"
 "http://www.w3.org/Graphics/SVG/1.1/DTD/svg11.dtd">
<!-- Generated by graphviz version 2.40.1 (20161225.0304)
 -->
<!-- Title: %3 Pages: 1 -->
<svg width="883pt" height="404pt"
 viewBox="0.00 0.00 883.42 404.00" xmlns="http://www.w3.org/2000/svg" xmlns:xlink="http://www.w3.org/1999/xlink">
<g id="graph0" class="graph" transform="scale(1 1) rotate(0) translate(4 400)">
<title>%3</title>
<polygon fill="#ffffff" stroke="transparent" points="-4,4 -4,-400 879.4195,-400 879.4195,4 -4,4"/>
<!-- [root] aws_instance.second&#45;server -->
<g id="node1" class="node">
<title>[root] aws_instance.second&#45;server</title>
<polygon fill="none" stroke="#000000" points="171.8199,-252 .06,-252 .06,-216 171.8199,-216 171.8199,-252"/>
<text text-anchor="middle" x="85.9399" y="-229.8" font-family="Times,serif" font-size="14.00" fill="#000000">aws_instance.second&#45;server</text>
</g>
<!-- [root] aws_subnet.subnet2 -->
<g id="node4" class="node">
<title>[root] aws_subnet.subnet2</title>
<polygon fill="none" stroke="#000000" points="251.3165,-180 122.5634,-180 122.5634,-144 251.3165,-144 251.3165,-180"/>
<text text-anchor="middle" x="186.9399" y="-157.8" font-family="Times,serif" font-size="14.00" fill="#000000">aws_subnet.subnet2</text>
</g>
<!-- [root] aws_instance.second&#45;server&#45;&gt;[root] aws_subnet.subnet2 -->
<g id="edge1" class="edge">
<title>[root] aws_instance.second&#45;server&#45;&gt;[root] aws_subnet.subnet2</title>
<path fill="none" stroke="#000000" d="M111.4265,-215.8314C124.1058,-206.7927 139.5995,-195.7476 153.2455,-186.0198"/>
<polygon fill="#000000" stroke="#000000" points="155.3504,-188.8176 161.4615,-180.1628 151.2871,-183.1176 155.3504,-188.8176"/>
</g>
<!-- [root] data.aws_ami.ubuntu -->
<g id="node6" class="node">
<title>[root] data.aws_ami.ubuntu</title>
<polygon fill="none" stroke="#000000" points="157.4126,-108 22.4673,-108 22.4673,-72 157.4126,-72 157.4126,-108"/>
<text text-anchor="middle" x="89.9399" y="-85.8" font-family="Times,serif" font-size="14.00" fill="#000000">data.aws_ami.ubuntu</text>
</g>
<!-- [root] aws_instance.second&#45;server&#45;&gt;[root] data.aws_ami.ubuntu -->
<g id="edge2" class="edge">
<title>[root] aws_instance.second&#45;server&#45;&gt;[root] data.aws_ami.ubuntu</title>
<path fill="none" stroke="#000000" d="M86.4465,-215.7623C87.1288,-191.201 88.3497,-147.2474 89.1523,-118.3541"/>
<polygon fill="#000000" stroke="#000000" points="92.6583,-118.183 89.4375,-108.0896 85.661,-117.9885 92.6583,-118.183"/>
</g>
<!-- [root] aws_security_group.aws&#45;security -->
<g id="node2" class="node">
<title>[root] aws_security_group.aws&#45;security</title>
<polygon fill="none" stroke="#000000" points="392.4438,-252 189.436,-252 189.436,-216 392.4438,-216 392.4438,-252"/>
<text text-anchor="middle" x="290.9399" y="-229.8" font-family="Times,serif" font-size="14.00" fill="#000000">aws_security_group.aws&#45;security</text>
</g>
<!-- [root] aws_vpc.environment&#45;example&#45;two -->
<g id="node5" class="node">
<title>[root] aws_vpc.environment&#45;example&#45;two</title>
<polygon fill="none" stroke="#000000" points="393.4302,-108 176.4497,-108 176.4497,-72 393.4302,-72 393.4302,-108"/>
<text text-anchor="middle" x="284.9399" y="-85.8" font-family="Times,serif" font-size="14.00" fill="#000000">aws_vpc.environment&#45;example&#45;two</text>
</g>
<!-- [root] aws_security_group.aws&#45;security&#45;&gt;[root] aws_vpc.environment&#45;example&#45;two -->
<g id="edge3" class="edge">
<title>[root] aws_security_group.aws&#45;security&#45;&gt;[root] aws_vpc.environment&#45;example&#45;two</title>
<path fill="none" stroke="#000000" d="M290.18,-215.7623C289.1567,-191.201 287.3252,-147.2474 286.1214,-118.3541"/>
<polygon fill="#000000" stroke="#000000" points="289.607,-117.9352 285.6937,-108.0896 282.6131,-118.2267 289.607,-117.9352"/>
</g>
<!-- [root] aws_subnet.subnet1 -->
<g id="node3" class="node">
<title>[root] aws_subnet.subnet1</title>
<polygon fill="none" stroke="#000000" points="539.3165,-252 410.5634,-252 410.5634,-216 539.3165,-216 539.3165,-252"/>
<text text-anchor="middle" x="474.9399" y="-229.8" font-family="Times,serif" font-size="14.00" fill="#000000">aws_subnet.subnet1</text>
</g>
<!-- [root] aws_subnet.subnet1&#45;&gt;[root] aws_vpc.environment&#45;example&#45;two -->
<g id="edge4" class="edge">
<title>[root] aws_subnet.subnet1&#45;&gt;[root] aws_vpc.environment&#45;example&#45;two</title>
<path fill="none" stroke="#000000" d="M450.8763,-215.7623C416.8987,-190.0108 354.794,-142.942 316.9546,-114.2637"/>
<polygon fill="#000000" stroke="#000000" points="318.892,-111.3404 308.8082,-108.0896 314.6638,-116.9192 318.892,-111.3404"/>
</g>
<!-- [root] aws_subnet.subnet2&#45;&gt;[root] aws_vpc.environment&#45;example&#45;two -->
<g id="edge5" class="edge">
<title>[root] aws_subnet.subnet2&#45;&gt;[root] aws_vpc.environment&#45;example&#45;two</title>
<path fill="none" stroke="#000000" d="M211.6695,-143.8314C223.8561,-134.8779 238.7223,-123.9558 251.8711,-114.2955"/>
<polygon fill="#000000" stroke="#000000" points="254.2318,-116.9042 260.2183,-108.1628 250.0872,-111.263 254.2318,-116.9042"/>
</g>
<!-- [root] provider.aws -->
<g id="node10" class="node">
<title>[root] provider.aws</title>
<polygon fill="none" stroke="#000000" points="187.9399,-36 109.3316,-18 187.9399,0 266.5483,-18 187.9399,-36"/>
<text text-anchor="middle" x="187.9399" y="-13.8" font-family="Times,serif" font-size="14.00" fill="#000000">provider.aws</text>
</g>
<!-- [root] aws_vpc.environment&#45;example&#45;two&#45;&gt;[root] provider.aws -->
<g id="edge6" class="edge">
<title>[root] aws_vpc.environment&#45;example&#45;two&#45;&gt;[root] provider.aws</title>
<path fill="none" stroke="#000000" d="M260.4627,-71.8314C246.6124,-61.5507 229.2652,-48.6744 215.0098,-38.0931"/>
<polygon fill="#000000" stroke="#000000" points="216.7081,-34.9949 206.5923,-31.845 212.5359,-40.6157 216.7081,-34.9949"/>
</g>
<!-- [root] data.aws_ami.ubuntu&#45;&gt;[root] provider.aws -->
<g id="edge7" class="edge">
<title>[root] data.aws_ami.ubuntu&#45;&gt;[root] provider.aws</title>
<path fill="none" stroke="#000000" d="M114.6695,-71.8314C128.7946,-61.4537 146.5196,-48.4313 160.9978,-37.7943"/>
<polygon fill="#000000" stroke="#000000" points="163.1088,-40.5864 169.0953,-31.845 158.9642,-34.9452 163.1088,-40.5864"/>
</g>
<!-- [root] google_compute_instance.first&#45;server -->
<g id="node7" class="node">
<title>[root] google_compute_instance.first&#45;server</title>
<polygon fill="none" stroke="#000000" points="828.2683,-252 601.6116,-252 601.6116,-216 828.2683,-216 828.2683,-252"/>
<text text-anchor="middle" x="714.9399" y="-229.8" font-family="Times,serif" font-size="14.00" fill="#000000">google_compute_instance.first&#45;server</text>
</g>
<!-- [root] google_compute_subnetwork.dev&#45;subnet -->
<g id="node9" class="node">
<title>[root] google_compute_subnetwork.dev&#45;subnet</title>
<polygon fill="none" stroke="#000000" points="838.0028,-180 591.8771,-180 591.8771,-144 838.0028,-144 838.0028,-180"/>
<text text-anchor="middle" x="714.9399" y="-157.8" font-family="Times,serif" font-size="14.00" fill="#000000">google_compute_subnetwork.dev&#45;subnet</text>
</g>
<!-- [root] google_compute_instance.first&#45;server&#45;&gt;[root] google_compute_subnetwork.dev&#45;subnet -->
<g id="edge8" class="edge">
<title>[root] google_compute_instance.first&#45;server&#45;&gt;[root] google_compute_subnetwork.dev&#45;subnet</title>
<path fill="none" stroke="#000000" d="M714.9399,-215.8314C714.9399,-208.131 714.9399,-198.9743 714.9399,-190.4166"/>
<polygon fill="#000000" stroke="#000000" points="718.44,-190.4132 714.9399,-180.4133 711.44,-190.4133 718.44,-190.4132"/>
</g>
<!-- [root] google_compute_network.vpc&#45;test&#45;2 -->
<g id="node8" class="node">
<title>[root] google_compute_network.vpc&#45;test&#45;2</title>
<polygon fill="none" stroke="#000000" points="825.6062,-108 604.2737,-108 604.2737,-72 825.6062,-72 825.6062,-108"/>
<text text-anchor="middle" x="714.9399" y="-85.8" font-family="Times,serif" font-size="14.00" fill="#000000">google_compute_network.vpc&#45;test&#45;2</text>
</g>
<!-- [root] provider.google -->
<g id="node11" class="node">
<title>[root] provider.google</title>
<polygon fill="none" stroke="#000000" points="714.9399,-36 621.6535,-18 714.9399,0 808.2263,-18 714.9399,-36"/>
<text text-anchor="middle" x="714.9399" y="-13.8" font-family="Times,serif" font-size="14.00" fill="#000000">provider.google</text>
</g>
<!-- [root] google_compute_network.vpc&#45;test&#45;2&#45;&gt;[root] provider.google -->
<g id="edge9" class="edge">
<title>[root] google_compute_network.vpc&#45;test&#45;2&#45;&gt;[root] provider.google</title>
<path fill="none" stroke="#000000" d="M714.9399,-71.8314C714.9399,-64.131 714.9399,-54.9743 714.9399,-46.4166"/>
<polygon fill="#000000" stroke="#000000" points="718.44,-46.4132 714.9399,-36.4133 711.44,-46.4133 718.44,-46.4132"/>
</g>
<!-- [root] google_compute_subnetwork.dev&#45;subnet&#45;&gt;[root] google_compute_network.vpc&#45;test&#45;2 -->
<g id="edge10" class="edge">
<title>[root] google_compute_subnetwork.dev&#45;subnet&#45;&gt;[root] google_compute_network.vpc&#45;test&#45;2</title>
<path fill="none" stroke="#000000" d="M714.9399,-143.8314C714.9399,-136.131 714.9399,-126.9743 714.9399,-118.4166"/>
<polygon fill="#000000" stroke="#000000" points="718.44,-118.4132 714.9399,-108.4133 711.44,-118.4133 718.44,-118.4132"/>
</g>
<!-- [root] meta.count&#45;boundary (count boundary fixup) -->
<g id="node12" class="node">
<title>[root] meta.count&#45;boundary (count boundary fixup)</title>
<ellipse fill="none" stroke="#000000" cx="436.9399" cy="-306" rx="191.6931" ry="18"/>
<text text-anchor="middle" x="436.9399" y="-301.8" font-family="Times,serif" font-size="14.00" fill="#000000">[root] meta.count&#45;boundary (count boundary fixup)</text>
</g>
<!-- [root] meta.count&#45;boundary (count boundary fixup)&#45;&gt;[root] aws_instance.second&#45;server -->
<g id="edge11" class="edge">
<title>[root] meta.count&#45;boundary (count boundary fixup)&#45;&gt;[root] aws_instance.second&#45;server</title>
<path fill="none" stroke="#000000" d="M356.8534,-289.572C304.9484,-278.9248 237.0458,-264.9961 182.2067,-253.747"/>
<polygon fill="#000000" stroke="#000000" points="182.6253,-250.2601 172.1259,-251.6792 181.2186,-257.1173 182.6253,-250.2601"/>
</g>
<!-- [root] meta.count&#45;boundary (count boundary fixup)&#45;&gt;[root] aws_security_group.aws&#45;security -->
<g id="edge12" class="edge">
<title>[root] meta.count&#45;boundary (count boundary fixup)&#45;&gt;[root] aws_security_group.aws&#45;security</title>
<path fill="none" stroke="#000000" d="M400.85,-288.2022C381.5179,-278.6686 357.4991,-266.8237 336.8501,-256.6406"/>
<polygon fill="#000000" stroke="#000000" points="338.1455,-253.377 327.6288,-252.0931 335.0494,-259.6552 338.1455,-253.377"/>
</g>
<!-- [root] meta.count&#45;boundary (count boundary fixup)&#45;&gt;[root] aws_subnet.subnet1 -->
<g id="edge13" class="edge">
<title>[root] meta.count&#45;boundary (count boundary fixup)&#45;&gt;[root] aws_subnet.subnet1</title>
<path fill="none" stroke="#000000" d="M446.5289,-287.8314C450.7717,-279.7925 455.852,-270.1666 460.5359,-261.2918"/>
<polygon fill="#000000" stroke="#000000" points="463.6495,-262.8908 465.2218,-252.4133 457.4588,-259.6235 463.6495,-262.8908"/>
</g>
<!-- [root] meta.count&#45;boundary (count boundary fixup)&#45;&gt;[root] google_compute_instance.first&#45;server -->
<g id="edge14" class="edge">
<title>[root] meta.count&#45;boundary (count boundary fixup)&#45;&gt;[root] google_compute_instance.first&#45;server</title>
<path fill="none" stroke="#000000" d="M502.47,-289.0282C542.1493,-278.7515 593.0376,-265.5718 635.0637,-254.6874"/>
<polygon fill="#000000" stroke="#000000" points="636.187,-258.012 644.99,-252.1165 634.4319,-251.2356 636.187,-258.012"/>
</g>
<!-- [root] provider.aws (close) -->
<g id="node13" class="node">
<title>[root] provider.aws (close)</title>
<ellipse fill="none" stroke="#000000" cx="122.9399" cy="-306" rx="104.3276" ry="18"/>
<text text-anchor="middle" x="122.9399" y="-301.8" font-family="Times,serif" font-size="14.00" fill="#000000">[root] provider.aws (close)</text>
</g>
<!-- [root] provider.aws (close)&#45;&gt;[root] aws_instance.second&#45;server -->
<g id="edge15" class="edge">
<title>[root] provider.aws (close)&#45;&gt;[root] aws_instance.second&#45;server</title>
<path fill="none" stroke="#000000" d="M113.6033,-287.8314C109.5157,-279.8771 104.6296,-270.369 100.109,-261.5723"/>
<polygon fill="#000000" stroke="#000000" points="103.0861,-259.7078 95.4023,-252.4133 96.86,-262.9074 103.0861,-259.7078"/>
</g>
<!-- [root] provider.aws (close)&#45;&gt;[root] aws_security_group.aws&#45;security -->
<g id="edge16" class="edge">
<title>[root] provider.aws (close)&#45;&gt;[root] aws_security_group.aws&#45;security</title>
<path fill="none" stroke="#000000" d="M161.9048,-289.3008C184.9396,-279.4287 214.3894,-266.8074 239.3368,-256.1156"/>
<polygon fill="#000000" stroke="#000000" points="240.8422,-259.2784 248.6549,-252.1222 238.0847,-252.8444 240.8422,-259.2784"/>
</g>
<!-- [root] provider.aws (close)&#45;&gt;[root] aws_subnet.subnet1 -->
<g id="edge17" class="edge">
<title>[root] provider.aws (close)&#45;&gt;[root] aws_subnet.subnet1</title>
<path fill="none" stroke="#000000" d="M195.4059,-293.0133C249.4183,-283.0938 325.221,-268.6694 400.3775,-252.2951"/>
<polygon fill="#000000" stroke="#000000" points="401.4757,-255.6376 410.4947,-250.078 399.9772,-248.7998 401.4757,-255.6376"/>
</g>
<!-- [root] provider.google (close) -->
<g id="node14" class="node">
<title>[root] provider.google (close)</title>
<ellipse fill="none" stroke="#000000" cx="760.9399" cy="-306" rx="114.4592" ry="18"/>
<text text-anchor="middle" x="760.9399" y="-301.8" font-family="Times,serif" font-size="14.00" fill="#000000">[root] provider.google (close)</text>
</g>
<!-- [root] provider.google (close)&#45;&gt;[root] google_compute_instance.first&#45;server -->
<g id="edge18" class="edge">
<title>[root] provider.google (close)&#45;&gt;[root] google_compute_instance.first&#45;server</title>
<path fill="none" stroke="#000000" d="M749.3322,-287.8314C744.1422,-279.7079 737.9168,-269.9637 732.1975,-261.0118"/>
<polygon fill="#000000" stroke="#000000" points="735.0374,-258.9559 726.704,-252.4133 729.1385,-262.7246 735.0374,-258.9559"/>
</g>
<!-- [root] root -->
<g id="node15" class="node">
<title>[root] root</title>
<ellipse fill="none" stroke="#000000" cx="436.9399" cy="-378" rx="46.8976" ry="18"/>
<text text-anchor="middle" x="436.9399" y="-373.8" font-family="Times,serif" font-size="14.00" fill="#000000">[root] root</text>
</g>
<!-- [root] root&#45;&gt;[root] meta.count&#45;boundary (count boundary fixup) -->
<g id="edge19" class="edge">
<title>[root] root&#45;&gt;[root] meta.count&#45;boundary (count boundary fixup)</title>
<path fill="none" stroke="#000000" d="M436.9399,-359.8314C436.9399,-352.131 436.9399,-342.9743 436.9399,-334.4166"/>
<polygon fill="#000000" stroke="#000000" points="440.44,-334.4132 436.9399,-324.4133 433.44,-334.4133 440.44,-334.4132"/>
</g>
<!-- [root] root&#45;&gt;[root] provider.aws (close) -->
<g id="edge20" class="edge">
<title>[root] root&#45;&gt;[root] provider.aws (close)</title>
<path fill="none" stroke="#000000" d="M396.5328,-368.7347C345.8273,-357.1079 257.951,-336.958 195.4788,-322.6331"/>
<polygon fill="#000000" stroke="#000000" points="196.2094,-319.2099 185.6801,-320.3863 194.6448,-326.0328 196.2094,-319.2099"/>
</g>
<!-- [root] root&#45;&gt;[root] provider.google (close) -->
<g id="edge21" class="edge">
<title>[root] root&#45;&gt;[root] provider.google (close)</title>
<path fill="none" stroke="#000000" d="M477.6467,-368.9541C529.4592,-357.4402 620.0038,-337.3191 684.7892,-322.9224"/>
<polygon fill="#000000" stroke="#000000" points="685.5514,-326.3385 694.554,-320.7524 684.0328,-319.5052 685.5514,-326.3385"/>
</g>
</g>
</svg>
